<?xml version="1.0" encoding="iso-8859-1"?>
<!-- Generator: Adobe Illustrator 19.0.0, SVG Export Plug-In . SVG Version: 6.00 Build 0)  -->
<svg version="1.1" id="Layer_1" xmlns="http://www.w3.org/2000/svg" xmlns:xlink="http://www.w3.org/1999/xlink" x="0px" y="0px"
	 viewBox="0 0 286.054 286.054" style="enable-background:new 0 0 286.054 286.054;" xml:space="preserve">
<g>
	<path style="fill:#ffffff;" d="M211.984,118.766c-3.343-3.352-8.778-3.352-12.13,0l-12.13,12.139l-12.13-12.139
		c-3.352-3.352-8.787-3.352-12.13,0c-3.352,3.352-3.352,8.778,0,12.13l12.13,12.139l-12.13,12.139c-3.352,3.352-3.352,8.778,0,12.13
		c3.343,3.352,8.778,3.352,12.13,0l12.13-12.13l12.13,12.13c3.352,3.352,8.787,3.352,12.13,0c3.352-3.352,3.352-8.778,0-12.13
		l-12.13-12.139l12.13-12.139C215.336,127.544,215.336,122.118,211.984,118.766z M131.406,100.074l-26.826,16.278H89.285
		c-9.771,0-8.841,7.974-8.841,17.78v17.789c0,9.824-0.93,17.78,8.841,17.78h15.125l26.996,16.359c5.9,3.629,11.71,0.697,11.71-6.499
		v-73.006C143.107,99.368,137.306,96.454,131.406,100.074z"/>
</g>
<g>
</g>
<g>
</g>
<g>
</g>
<g>
</g>
<g>
</g>
<g>
</g>
<g>
</g>
<g>
</g>
<g>
</g>
<g>
</g>
<g>
</g>
<g>
</g>
<g>
</g>
<g>
</g>
<g>
</g>
</svg>
