<?xml version="1.0" encoding="iso-8859-1"?>
<!-- Generator: Adobe Illustrator 19.0.0, SVG Export Plug-In . SVG Version: 6.00 Build 0)  -->
<svg version="1.1" id="Layer_1" xmlns="http://www.w3.org/2000/svg" xmlns:xlink="http://www.w3.org/1999/xlink" x="0px" y="0px"
	 viewBox="0 0 286.054 286.054" style="enable-background:new 0 0 286.054 286.054;" xml:space="preserve">
<g>
	<path fill="#ffffff" d="M149.28,100.074l-26.835,16.278h-15.277c-9.779,0-8.85,7.974-8.85,17.78v17.78
		c0,9.833-0.93,17.78,8.85,17.78h15.116l26.996,16.359c5.9,3.629,11.719,0.697,11.719-6.499v-73.006
		C160.999,99.368,155.18,96.454,149.28,100.074z"/>
	<path fill="#ffffff" d="M193.153,113.134c-3.281-3.281-8.608-3.281-11.889,0c-1.654,1.654-2.458,4.407-2.458,6.722
		c0,2.306,0.822,3.522,2.458,5.149c4.747,4.747,7.634,11.049,7.634,17.762s-2.887,13.024-7.634,17.753
		c-3.281,3.281-3.281,8.6,0,11.871c3.281,3.272,8.608,3.272,11.907,0c7.929-7.92,12.291-18.433,12.291-29.624
		C205.463,131.576,201.1,121.037,193.153,113.134z"/>
</g>
<g>
</g>
<g>
</g>
<g>
</g>
<g>
</g>
<g>
</g>
<g>
</g>
<g>
</g>
<g>
</g>
<g>
</g>
<g>
</g>
<g>
</g>
<g>
</g>
<g>
</g>
<g>
</g>
<g>
</g>
</svg>
